<svg id="_002-edit" data-name="002-edit" xmlns="http://www.w3.org/2000/svg" width="21.894" height="21.784" viewBox="0 0 21.894 21.784">
  <path id="Path_49" data-name="Path 49" d="M20.207,50.721a.545.545,0,0,0-.545.545v4.841a1.637,1.637,0,0,1-1.636,1.636H2.726a1.637,1.637,0,0,1-1.636-1.636V41.9a1.638,1.638,0,0,1,1.636-1.636H7.568a.545.545,0,1,0,0-1.091H2.726A2.729,2.729,0,0,0,0,41.9v14.21a2.729,2.729,0,0,0,2.726,2.726h15.3a2.729,2.729,0,0,0,2.726-2.726V51.266a.545.545,0,0,0-.545-.545Zm0,0" transform="translate(0 -37.05)" fill="#00dc25"/>
  <path id="Path_50" data-name="Path 50" d="M122.827.979a2.454,2.454,0,0,0-3.47,0l-9.728,9.728a.545.545,0,0,0-.14.24l-1.279,4.618a.545.545,0,0,0,.671.671l4.618-1.279a.545.545,0,0,0,.24-.14l9.728-9.728a2.456,2.456,0,0,0,0-3.47Zm-12.01,10.082L118.779,3.1l2.568,2.568-7.962,7.962Zm-.513,1.029,2.051,2.052-2.838.786ZM122.7,4.318l-.578.578L119.55,2.329l.579-.578a1.363,1.363,0,0,1,1.928,0l.64.64A1.365,1.365,0,0,1,122.7,4.318Zm0,0" transform="translate(-102.291 -0.261)" fill="#00dc25"/>
</svg>
