<svg id="_003-delete" data-name="003-delete" xmlns="http://www.w3.org/2000/svg" width="17.981" height="22.139" viewBox="0 0 17.981 22.139">
  <path id="Path_51" data-name="Path 51" d="M222.916,154.7a.518.518,0,0,0-.518.518v9.8a.518.518,0,0,0,1.037,0v-9.8A.518.518,0,0,0,222.916,154.7Zm0,0" transform="translate(-210.867 -146.682)" fill="red"/>
  <path id="Path_52" data-name="Path 52" d="M104.916,154.7a.518.518,0,0,0-.518.518v9.8a.518.518,0,0,0,1.037,0v-9.8A.518.518,0,0,0,104.916,154.7Zm0,0" transform="translate(-98.985 -146.682)" fill="red"/>
  <path id="Path_53" data-name="Path 53" d="M1.469,6.59V19.364a2.861,2.861,0,0,0,.761,1.973,2.553,2.553,0,0,0,1.853.8h9.81a2.553,2.553,0,0,0,1.853-.8,2.861,2.861,0,0,0,.761-1.973V6.59A1.981,1.981,0,0,0,16,2.695H13.343V2.047A2.037,2.037,0,0,0,11.289,0h-4.6A2.037,2.037,0,0,0,4.632,2.047v.648H1.977A1.981,1.981,0,0,0,1.469,6.59ZM13.892,21.1H4.082a1.642,1.642,0,0,1-1.576-1.737V6.635H15.468V19.364A1.642,1.642,0,0,1,13.892,21.1ZM5.669,2.047A1,1,0,0,1,6.685,1.036h4.6a1,1,0,0,1,1.016,1.011v.648H5.669ZM1.977,3.732H16A.933.933,0,0,1,16,5.6H1.977a.933.933,0,0,1,0-1.867Zm0,0" transform="translate(0.003 0.002)" fill="red"/>
  <path id="Path_54" data-name="Path 54" d="M163.916,154.7a.518.518,0,0,0-.518.518v9.8a.518.518,0,0,0,1.037,0v-9.8A.518.518,0,0,0,163.916,154.7Zm0,0" transform="translate(-154.926 -146.682)" fill="red"/>
</svg>
