<svg xmlns="http://www.w3.org/2000/svg" width="24.183" height="15.114" viewBox="0 0 24.183 15.114">
  <path id="Icon_metro-eye" data-name="Icon metro-eye" d="M14.662,7.712A13.543,13.543,0,0,0,2.571,15.269a13.452,13.452,0,0,0,24.183,0A13.543,13.543,0,0,0,14.662,7.712Zm5.962,4.008a11.5,11.5,0,0,1,3.529,3.549,11.5,11.5,0,0,1-3.529,3.549,11.08,11.08,0,0,1-11.924,0,11.5,11.5,0,0,1-3.529-3.549A11.5,11.5,0,0,1,8.7,11.72c.093-.059.186-.116.28-.172a6.046,6.046,0,1,0,11.364,0q.141.084.28.172ZM14.662,13a2.267,2.267,0,1,1-2.267-2.267A2.267,2.267,0,0,1,14.662,13Z" transform="translate(-2.571 -7.712)" fill="#3861d6"/>
</svg>
